<svg xmlns="http://www.w3.org/2000/svg" viewBox="0 0 48 48" height="48" width="48"><g aria-label="****" style="line-height:1.25" font-weight="400" font-size="24.21" font-family=".Helvetica LT MM" letter-spacing="0" word-spacing="0" stroke-width=".284"><path d="M.708 22.614L.224 23.97l2.881 1.04-1.913 2.422 1.235.799 1.864-2.446 1.986 2.567 1.186-.944-1.961-2.47 2.93-.944-.46-1.404-2.857 1.04v-3.147H3.614v3.22zM13.854 22.614l-.484 1.356 2.88 1.04-1.912 2.422 1.235.799 1.864-2.446 1.985 2.567 1.186-.944-1.96-2.47 2.929-.944-.46-1.404-2.857 1.04v-3.147h-1.501v3.22zM27 22.614l-.485 1.356 2.881 1.04-1.913 2.422 1.235.799 1.864-2.446 1.986 2.567 1.186-.944-1.961-2.47 2.93-.944-.46-1.404-2.857 1.04v-3.147h-1.502v3.22zM40.145 22.614l-.485 1.356 2.882 1.04-1.913 2.422 1.235.799 1.864-2.446 1.985 2.567 1.186-.944-1.96-2.47 2.929-.944-.46-1.404-2.857 1.04v-3.147H43.05v3.22z" style="-inkscape-font-specification:'.Helvetica LT MM'"/></g></svg>